<svg width="169" height="280" viewBox="0 0 169 280" fill="none" xmlns="http://www.w3.org/2000/svg">
<path fill-rule="evenodd" clip-rule="evenodd" d="M0.059967 -10H168.779V181H0.059967V-10Z" fill="#4AF6CD"/>
<path d="M60.4813 145.36C60.4813 142.2 60.9413 139.42 61.8613 137.02C62.7813 134.58 64.1613 132.4 66.0013 130.48L71.8813 135.46C69.6013 138.34 68.4613 141.36 68.4613 144.52C68.4613 146.16 68.7813 147.42 69.4213 148.3C70.0213 149.14 70.8813 149.56 72.0013 149.56C72.8013 149.56 73.4613 149.34 73.9813 148.9C74.5013 148.46 75.0013 147.72 75.4813 146.68C75.9613 145.64 76.5613 144 77.2813 141.76C78.6413 137.48 80.3613 134.36 82.4413 132.4C84.4813 130.4 87.3213 129.4 90.9613 129.4C93.6013 129.4 95.9413 130.08 97.9813 131.44C99.9813 132.8 101.541 134.78 102.661 137.38C103.781 139.94 104.341 142.96 104.341 146.44C104.341 153.08 102.321 158.5 98.2813 162.7L92.2213 157.24C94.9413 153.92 96.3013 150.46 96.3013 146.86C96.3013 144.98 95.9013 143.52 95.1013 142.48C94.2613 141.44 93.1613 140.92 91.8013 140.92C90.8413 140.92 90.0613 141.12 89.4613 141.52C88.8213 141.92 88.2613 142.64 87.7813 143.68C87.2613 144.68 86.7013 146.16 86.1013 148.12C84.6213 152.84 82.8413 156.16 80.7613 158.08C78.6813 160 76.0613 160.96 72.9013 160.96C70.4213 160.96 68.2413 160.3 66.3613 158.98C64.4813 157.62 63.0413 155.76 62.0413 153.4C61.0013 151 60.4813 148.32 60.4813 145.36ZM89.2813 91.9553C92.1613 91.9553 94.7413 92.5953 97.0213 93.8753C99.3013 95.1153 101.101 96.9953 102.421 99.5153C103.701 102.035 104.341 105.115 104.341 108.755C104.341 114.275 103.001 118.455 100.321 121.295C97.6013 124.135 93.9213 125.555 89.2813 125.555H61.5613V114.455H88.9213C91.4413 114.455 93.3013 114.015 94.5013 113.135C95.6613 112.215 96.2413 110.755 96.2413 108.755C96.2413 106.755 95.6413 105.315 94.4413 104.435C93.2413 103.555 91.4013 103.115 88.9213 103.115H61.5613V91.9553H89.2813ZM87.9013 71.9477V75.0077H103.261V86.1077H61.5613V71.6477C61.5613 65.7677 62.6213 61.3877 64.7413 58.5077C66.8613 55.5877 70.1213 54.1277 74.5213 54.1277C77.1613 54.1277 79.3613 54.7477 81.1213 55.9877C82.8813 57.1877 84.4613 59.1277 85.8613 61.8077L103.261 51.4277V63.7877L87.9013 71.9477ZM80.3413 75.0077V71.2877C80.3413 67.4477 78.4013 65.5277 74.5213 65.5277C72.7213 65.5277 71.4013 66.0677 70.5613 67.1477C69.7213 68.1877 69.3013 69.7677 69.3013 71.8877V75.0077H80.3413ZM103.261 48.9006H61.5613V23.2806L69.4213 24.4206V37.8006H79.4413V26.0406H87.3013V37.8006H103.261V48.9006Z" fill="white"/>
<path d="M60.4813 257.92C60.4813 252.36 62.2413 247.58 65.7613 243.58L71.4613 249.04C70.3813 250.56 69.6013 251.94 69.1213 253.18C68.6013 254.38 68.3413 255.76 68.3413 257.32C68.3413 260.32 69.5013 262.68 71.8213 264.4C74.1413 266.08 77.6813 266.92 82.4413 266.92C85.9213 266.92 88.6813 266.64 90.7213 266.08C92.7213 265.52 94.1613 264.68 95.0413 263.56C95.9213 262.4 96.3613 260.92 96.3613 259.12C96.3613 257.32 95.9813 255.68 95.2213 254.2H86.6413V258.94L79.0213 260.02V243.46H99.7813C101.221 245.62 102.341 248.06 103.141 250.78C103.941 253.5 104.341 256.18 104.341 258.82C104.341 271.86 97.0213 278.38 82.3813 278.38C77.8213 278.38 73.9013 277.5 70.6213 275.74C67.3013 273.94 64.7813 271.5 63.0613 268.42C61.3413 265.34 60.4813 261.84 60.4813 257.92ZM60.4813 220.335C60.4813 214.295 62.4013 209.595 66.2413 206.235C70.0813 202.875 75.4613 201.195 82.3813 201.195C86.9013 201.195 90.8213 201.955 94.1413 203.475C97.4213 204.955 99.9413 207.135 101.701 210.015C103.461 212.895 104.341 216.335 104.341 220.335C104.341 226.375 102.421 231.075 98.5813 234.435C94.7413 237.755 89.3413 239.415 82.3813 239.415C77.8613 239.415 73.9613 238.675 70.6813 237.195C67.4013 235.675 64.8813 233.495 63.1213 230.655C61.3613 227.775 60.4813 224.335 60.4813 220.335ZM68.4613 220.335C68.4613 222.935 69.5413 224.855 71.7013 226.095C73.8613 227.295 77.4213 227.895 82.3813 227.895C87.3413 227.895 90.9213 227.275 93.1213 226.035C95.2813 224.795 96.3613 222.895 96.3613 220.335C96.3613 217.695 95.2813 215.775 93.1213 214.575C90.9613 213.375 87.3813 212.775 82.3813 212.775C77.4213 212.775 73.8613 213.375 71.7013 214.575C69.5413 215.775 68.4613 217.695 68.4613 220.335Z" fill="white"/>
<rect x="83.4154" y="191" width="20" height="1.00428" transform="rotate(-90 83.4154 191)" fill="white"/>
</svg>
